#!Matlab matrix to amc conversion
:FULLY-SPECIFIED
:DEGREES
211
root -3.056252 1.465315 83.348512 5.559732 1.662165 -2.416651
lowerback -5.864257 -0.087375 -1.271606
upperback -1.660302 -0.101173 3.169926
thorax 1.523962 -0.050587 3.960176
lowerneck -23.107557 -4.627150 -11.929833
upperneck 26.399653 -5.891234 11.971577
head 13.512285 -2.193658 5.724737
rclavicle -0.000000 -0.000000
rhumerus -36.151112 4.804453 -80.341741
rradius 23.660694
rwrist -3.629357
rhand -28.856200 -18.800500
rfingers 7.125020
rthumb -2.212790 -48.768800
lclavicle -0.000000 -0.000000
lhumerus -29.040781 -16.388877 98.567877
lradius 24.444846
lwrist 5.165394
lhand -19.668800 -28.799300
lfingers 7.125020
lthumb 6.659510 1.076010
rfemur -9.759357 -1.436970 29.065896
rtibia 18.649342
rfoot -12.648808 7.195706
rtoes -20.766800
lfemur -25.578056 12.067701 -18.474497
ltibia 64.216587
lfoot 14.424106 44.554908
ltoes -22.051700
212
root -3.062808 1.416976 83.674975 5.745510 0.914876 -2.805672
lowerback -5.782244 0.315678 -0.680371
upperback -1.649386 0.414466 3.087164
thorax 1.436401 0.207275 3.566544
lowerneck -23.187505 -4.672669 -11.934368
upperneck 26.207653 -5.947260 12.014121
head 13.456565 -2.206836 5.724509
rclavicle -0.000000 0.000000
rhumerus -35.198084 9.148149 -82.668492
rradius 25.839104
rwrist -7.212803
rhand -28.856200 -18.800500
rfingers 7.125020
rthumb -2.212790 -48.768800
lclavicle -0.000000 0.000000
lhumerus -30.489289 -12.434668 96.696625
lradius 22.135939
lwrist 1.073641
lhand -19.668800 -28.799300
lfingers 7.125020
lthumb 6.659510 1.076010
rfemur -8.042946 -1.352347 29.703293
rtibia 17.435083
rfoot -13.523888 6.860995
rtoes -20.766800
lfemur -28.974212 12.524109 -19.288685
ltibia 62.946932
lfoot 9.179785 39.777054
ltoes -22.051700
213
root -3.067806 1.365055 84.005257 5.896314 0.322511 -3.317715
lowerback -5.545762 0.607478 -0.011805
upperback -1.644399 0.776299 3.109647
thorax 1.289551 0.388947 3.233539
lowerneck -23.186098 -4.640591 -12.059623
upperneck 25.785558 -5.865235 12.177746
head 13.281776 -2.157285 5.805684
rclavicle -0.000000 0.000000
rhumerus -34.188064 13.044055 -84.357948
rradius 28.132743
rwrist -10.355292
rhand -28.856200 -18.800500
rfingers 7.125020
rthumb -2.212790 -48.768800
lclavicle -0.000000 0.000000
lhumerus -32.312803 -7.470802 93.805160
lradius 19.934177
lwrist -4.005979
lhand -19.668800 -28.799300
lfingers 7.125020
lthumb 6.659510 1.076010
rfemur -6.692084 -1.427153 30.315939
rtibia 17.003042
rfoot -14.200896 6.802306
rtoes -20.766800
lfemur -31.945039 12.398832 -19.605533
ltibia 60.692691
lfoot 3.210111 33.561635
ltoes -22.051700
214
root -3.070137 1.316787 84.342562 6.031043 -0.235152 -3.776369
lowerback -5.307322 0.848858 0.568201
upperback -1.638216 1.074101 3.154957
thorax 1.155028 0.538442 2.970903
lowerneck -23.200218 -4.596958 -12.193169
upperneck 25.301246 -5.752898 12.342981
head 13.083186 -2.095313 5.890072
rclavicle -0.000000 0.000000
rhumerus -33.284360 16.234996 -85.318791
rradius 30.405356
rwrist -12.771978
rhand -28.856200 -18.800500
rfingers 7.125020
rthumb -2.212790 -48.768800
lclavicle -0.000000 0.000000
lhumerus -34.256299 -2.059932 90.233692
lradius 17.827339
lwrist -9.513002
lhand -19.668800 -28.799300
lfingers 7.125020
lthumb 6.659510 1.076010
rfemur -5.425053 -1.501542 30.782263
rtibia 16.592356
rfoot -14.597713 6.968003
rtoes -20.766800
lfemur -34.218554 11.983120 -19.536722
ltibia 57.403374
lfoot -1.002832 29.180715
ltoes -22.051700
215
root -3.069848 1.272724 84.685935 6.206515 -0.860754 -4.116343
lowerback -5.129908 1.082899 1.004554
upperback -1.620431 1.367156 3.177757
thorax 1.068395 0.685008 2.765995
lowerneck -23.250585 -4.547484 -12.285766
upperneck 24.908869 -5.632370 12.449178
head 12.924016 -2.033532 5.949368
rclavicle -0.000000 0.000000
rhumerus -32.446435 18.776365 -85.720347
rradius 32.525134
rwrist -14.568964
rhand -28.856200 -18.800500
rfingers 7.125020
rthumb -2.212790 -48.768800
lclavicle -0.000000 0.000000
lhumerus -36.288503 3.659620 86.005116
lradius 15.907380
lwrist -15.440435
lhand -19.668800 -28.799300
lfingers 7.125020
lthumb 6.659510 1.076010
rfemur -4.091074 -1.552424 31.097696
rtibia 15.863476
rfoot -14.756923 7.228984
rtoes -20.766800
lfemur -35.939768 11.450264 -19.242549
ltibia 53.199262
lfoot -3.612961 26.542672
ltoes -22.051700
216
root -3.067641 1.231743 85.033680 6.460149 -1.588201 -4.335746
lowerback -5.033619 1.326615 1.299812
upperback -1.586488 1.676105 3.168119
thorax 1.044898 0.839229 2.609995
lowerneck -23.321413 -4.486789 -12.338071
upperneck 24.672470 -5.500233 12.481712
head 12.824411 -1.972779 5.982145
rclavicle -0.000000 0.000000
rhumerus -31.558703 20.739316 -85.701989
rradius 34.433816
rwrist -15.897265
rhand -28.856200 -18.800500
rfingers 7.125020
rthumb -2.212790 -48.768800
lclavicle -0.000000 0.000000
lhumerus -38.453008 9.384018 81.259122
lradius 14.308652
lwrist -21.554136
lhand -19.668800 -28.799300
lfingers 7.125020
lthumb 6.659510 1.076010
rfemur -2.632260 -1.596488 31.258767
rtibia 14.760776
rfoot -14.658545 7.533002
rtoes -20.766800
lfemur -37.252339 10.797284 -18.782269
ltibia 48.166210
lfoot -5.209715 24.935913
ltoes -22.051700
217
root -3.064162 1.192610 85.384753 6.786217 -2.375615 -4.475837
lowerback -5.017330 1.576147 1.500565
upperback -1.536409 1.991847 3.137823
thorax 1.087622 0.997170 2.490253
lowerneck -23.389209 -4.416493 -12.374010
upperneck 24.570088 -5.357075 12.459339
head 12.772771 -1.913464 5.999136
rclavicle -0.000000 0.000000
rhumerus -30.516540 22.198121 -85.390487
rradius 36.131633
rwrist -16.905714
rhand -28.856200 -18.800500
rfingers 7.125020
rthumb -2.212790 -48.768800
lclavicle -0.000000 0.000000
lhumerus -40.727445 14.559433 76.406547
lradius 13.104611
lwrist -27.274645
lhand -19.668800 -28.799300
lfingers 7.125020
lthumb 6.659510 1.076010
rfemur -1.048901 -1.637221 31.261145
rtibia 13.376715
rfoot -14.249092 7.890304
rtoes -20.766800
lfemur -38.246816 9.930379 -18.148681
ltibia 42.551023
lfoot -6.384517 23.659829
ltoes -22.051700
218
root -3.059587 1.154251 85.739422 7.160608 -3.180090 -4.607347
lowerback -5.074157 1.832318 1.688534
upperback -1.470065 2.310455 3.104538
thorax 1.196226 1.157495 2.380233
lowerneck -23.441548 -4.344971 -12.418222
upperneck 24.524637 -5.209799 12.412578
head 12.739990 -1.856777 6.011804
rclavicle 0.000000 0.000000
rhumerus -29.228675 23.317921 -84.895603
rradius 37.738069
rwrist -17.776041
rhand -28.856200 -18.800500
rfingers 7.125020
rthumb -2.212790 -48.768800
lclavicle 0.000000 0.000000
lhumerus -43.099747 18.757493 71.830839
lradius 12.224066
lwrist -32.087415
lhand -19.668800 -28.799300
lfingers 7.125020
lthumb 6.659510 1.076010
rfemur 0.729232 -1.650541 31.123405
rtibia 11.738021
rfoot -13.478307 8.339745
rtoes -20.766800
lfemur -39.015172 8.751511 -17.305678
ltibia 36.513527
lfoot -7.531547 22.275943
ltoes -22.051700
